/* XPM */
static char * bluej_xpm[] = {
"32 32 214 2",
"  	c None",
". 	c #949290",
"+ 	c #9EA1A3",
"@ 	c #A7B2BD",
"# 	c #97A4AF",
"$ 	c #7D7F81",
"% 	c #8B8F92",
"& 	c #979CA0",
"* 	c #8F9091",
"= 	c #9EA0A3",
"- 	c #ACB8C3",
"; 	c #A9C0D4",
"> 	c #8FAFCC",
", 	c #6F97BB",
"' 	c #6691B7",
") 	c #7BA1C4",
"! 	c #92B1CE",
"~ 	c #9DB9D2",
"{ 	c #A2BED6",
"] 	c #95A9BB",
"^ 	c #5A5958",
"/ 	c #2B2B2B",
"( 	c #878686",
"_ 	c #A5B5C3",
": 	c #97B5D0",
"< 	c #749BBD",
"[ 	c #618DB4",
"} 	c #5C89B1",
"| 	c #5B89B1",
"1 	c #537CA1",
"2 	c #243748",
"3 	c #000000",
"4 	c #767677",
"5 	c #96AEC4",
"6 	c #7098BB",
"7 	c #5D8AB2",
"8 	c #5D8AB3",
"9 	c #466785",
"0 	c #010101",
"a 	c #636262",
"b 	c #788C9C",
"c 	c #6590B6",
"d 	c #5886AF",
"e 	c #5987B0",
"f 	c #5B88B1",
"g 	c #5785AF",
"h 	c #5786AF",
"i 	c #5E8BB4",
"j 	c #496D8D",
"k 	c #090909",
"l 	c #8F8F90",
"m 	c #EDF3F7",
"n 	c #D4E0EA",
"o 	c #D0DDE8",
"p 	c #CCDBE6",
"q 	c #B8CCDD",
"r 	c #BBCDDE",
"s 	c #DBE5EE",
"t 	c #DBE5ED",
"u 	c #708FAA",
"v 	c #293E50",
"w 	c #030303",
"x 	c #010000",
"y 	c #545454",
"z 	c #D1D3D4",
"A 	c #F6F9FB",
"B 	c #F5F8FA",
"C 	c #F4F7F9",
"D 	c #FAFEFF",
"E 	c #EFF1F3",
"F 	c #FFFFFF",
"G 	c #737373",
"H 	c #56738E",
"I 	c #0B0D0F",
"J 	c #575757",
"K 	c #474747",
"L 	c #BCBEC0",
"M 	c #FAFDFF",
"N 	c #606162",
"O 	c #151515",
"P 	c #EDEFF1",
"Q 	c #8D8E8F",
"R 	c #18242E",
"S 	c #6692BA",
"T 	c #3B556C",
"U 	c #666667",
"V 	c #98999A",
"W 	c #434444",
"X 	c #101010",
"Y 	c #F8FBFD",
"Z 	c #A7A9AA",
"` 	c #3E5D77",
" .	c #5D89B2",
"..	c #6995BC",
"+.	c #0B0E11",
"@.	c #787878",
"#.	c #9C9D9E",
"$.	c #848686",
"%.	c #424344",
"&.	c #5E5E5E",
"*.	c #8A8C8D",
"=.	c #6D6F6F",
"-.	c #D8DADC",
";.	c #818384",
">.	c #040608",
",.	c #608EB8",
"'.	c #506C86",
").	c #0A0806",
"!.	c #959595",
"~.	c #838383",
"{.	c #414141",
"].	c #070606",
"^.	c #E4E7E9",
"/.	c #ACAEAF",
"(.	c #5B5C5C",
"_.	c #A4A6A7",
":.	c #FCFFFF",
"<.	c #373737",
"[.	c #365068",
"}.	c #6994BA",
"|.	c #324758",
"1.	c #888888",
"2.	c #7E7E7E",
"3.	c #4C4C4C",
"4.	c #1C1C1C",
"5.	c #0F0F0F",
"6.	c #E5E8EA",
"7.	c #EFF2F4",
"8.	c #05070A",
"9.	c #6190BA",
"0.	c #5C8AB2",
"a.	c #5E8AB2",
"b.	c #6492BA",
"c.	c #080909",
"d.	c #0B0B0B",
"e.	c #7E7F80",
"f.	c #41607C",
"g.	c #07090A",
"h.	c #060606",
"i.	c #A0A2A3",
"j.	c #E3E6E8",
"k.	c #0B1218",
"l.	c #5F8DB6",
"m.	c #10171D",
"n.	c #414242",
"o.	c #F3F6F7",
"p.	c #EEF0F2",
"q.	c #171818",
"r.	c #282828",
"s.	c #87A0B5",
"t.	c #6288AB",
"u.	c #1B1D1E",
"v.	c #C7C9CB",
"w.	c #959798",
"x.	c #93B1CB",
"y.	c #6791B7",
"z.	c #6E8FAB",
"A.	c #1D1A18",
"B.	c #C6C8C9",
"C.	c #A6A8A9",
"D.	c #606161",
"E.	c #F0F2F4",
"F.	c #FCFDFD",
"G.	c #5D89B1",
"H.	c #5B87AD",
"I.	c #567FA4",
"J.	c #4E7496",
"K.	c #496C8D",
"L.	c #283D4F",
"M.	c #080807",
"N.	c #B2B4B5",
"O.	c #F2F5F7",
"P.	c #EBEEF0",
"Q.	c #F9FCFE",
"R.	c #BFD1E0",
"S.	c #5983A9",
"T.	c #4F7598",
"U.	c #436480",
"V.	c #37526A",
"W.	c #2E465A",
"X.	c #2B3F50",
"Y.	c #283A4A",
"Z.	c #CFD1D3",
"`.	c #F5F7F9",
" +	c #5A85AC",
".+	c #50789A",
"++	c #42627E",
"@+	c #334D62",
"#+	c #2B3F51",
"$+	c #283948",
"%+	c #252424",
"&+	c #F5F9FB",
"*+	c #F1F4F6",
"=+	c #B5C4D1",
"-+	c #456989",
";+	c #2C4153",
">+	c #273848",
",+	c #898A8A",
"'+	c #F6F9FA",
")+	c #F0F3F5",
"!+	c #EDF1F2",
"~+	c #D4D6D7",
"{+	c #B9BBBD",
"]+	c #9D9E9F",
"^+	c #3B4F60",
"/+	c #2A3C4C",
"(+	c #ADAEB0",
"_+	c #949697",
":+	c #919394",
"<+	c #8C8E8F",
"[+	c #808182",
"}+	c #717273",
"|+	c #646667",
"1+	c #606061",
"                                                                ",
"                                                                ",
"                                                                ",
"                                                                ",
"                                                                ",
"                              . + @ # $ % & *                   ",
"                          = - ; > , ' ) ! ~ { ] ^ /             ",
"                      ( _ : < [ } } } } | | 1 2 3 3             ",
"                    4 5 6 7 } } 7 7 7 7 8 9 3 0                 ",
"                  a b c d e f f g h 7 i j 3 3 k                 ",
"                  l m n o p q r s t u v 3 3 w x                 ",
"                y z A B C D E F C B G 3 3 3 x H I               ",
"              J K w L C M N 3 O P C Q 3 3 3 R S T               ",
"              U V 3 W F F 3 3 X Y B Z 3 3 3 `  ...+.            ",
"            @.#.M $.3 %.&.*.=.-.C B ;.3 3 >.,.} [ '.).          ",
"        !.~.{.].^.D /.(._.A A C B :.<.3 3 [.7 7  .}.|.          ",
"    1.2.3.4.w 3 5.6.C Y A B B B B 7.3 3 8.9.7 7 0.a.b.c.        ",
"  4.d.3 3 3 3 3 3 e.C B B B B B A ;.3 3 f.} 7 7 7 0.i g.        ",
"              h.3 i.C C B B B C j.3 3 k.9.7 7 7 7  .l.m.        ",
"                  n.o.B B B C p.q.3 r.s.} 7 7 7 7 0.a.t.u.      ",
"                  3 o.B B Y v.d.3 w.F x.7 7 7 7 7  .7 y.z.A.    ",
"                    B.B C C.3 D.E.B F.6 7 G.7 7 7 H.I.J.K.L.M.  ",
"                    N.B B O.P.Q.C B R.e 7 } S.T.U.V.W.X.Y.      ",
"                    Z.`.B B B B B F.y. +.+++@+#+$+              ",
"                  %+:.`.C B B &+*+=+-+V.;+>+                    ",
"                  ,+'+)+!+6.~+{+]+^+/+                          ",
"                  (+_+:+<+[+}+|+1+                              ",
"                                                                ",
"                                                                ",
"                                                                ",
"                                                                ",
"                                                                "};
